<svg id="Layer_1" data-name="Layer 1" xmlns="http://www.w3.org/2000/svg" viewBox="0 0 120 120"><defs><style>.cls-1{fill:#e95420;}.cls-2{fill:#fff;}</style></defs><title>Artboard 1</title><rect class="cls-1" width="120" height="120"/><path class="cls-2" d="M17.68,65.15c-.17-.41-.39-.93-.67-1.55l-.9-2c-.32-.72-.67-1.47-1-2.24s-.71-1.5-1-2.19-.62-1.3-.9-1.84-.51-1-.67-1.24c-.19,2-.34,4.16-.46,6.49s-.22,4.67-.31,7H9.3c.07-1.52.14-3.06.23-4.61s.18-3.07.29-4.57.23-3,.36-4.38.26-2.77.42-4h2.16q.68,1.13,1.47,2.64c.52,1,1,2.08,1.57,3.19s1,2.22,1.53,3.33l1.34,3q.61-1.37,1.35-3c.49-1.11,1-2.22,1.52-3.33s1.05-2.17,1.58-3.19,1-1.89,1.47-2.64h2.16q.87,8.52,1.3,17.6H25.63q-.12-3.56-.3-7c-.12-2.33-.27-4.5-.46-6.49-.17.28-.39.7-.67,1.24s-.58,1.16-.9,1.84-.67,1.42-1,2.19-.71,1.52-1,2.24l-.9,2c-.28.62-.51,1.14-.68,1.55Z"/><path class="cls-2" d="M32.67,52a1.51,1.51,0,0,1-1.08-.42,1.67,1.67,0,0,1,0-2.26,1.51,1.51,0,0,1,1.08-.42,1.53,1.53,0,0,1,1.08.42,1.67,1.67,0,0,1,0,2.26A1.53,1.53,0,0,1,32.67,52Zm1.19,15.59H31.5V54.38h2.36Z"/><path class="cls-2" d="M43.41,67.89a7.19,7.19,0,0,1-2.81-.51,5.68,5.68,0,0,1-2-1.42,5.87,5.87,0,0,1-1.23-2.17A9.06,9.06,0,0,1,36.93,61a8.35,8.35,0,0,1,.45-2.8A6.46,6.46,0,0,1,38.64,56a5.57,5.57,0,0,1,2-1.44,6.4,6.4,0,0,1,2.63-.52A10.78,10.78,0,0,1,45,54.2a8.08,8.08,0,0,1,1.7.48l-.53,2A5.64,5.64,0,0,0,45,56.28a7,7,0,0,0-1.48-.15,3.77,3.77,0,0,0-3,1.24A5.51,5.51,0,0,0,39.4,61a7.44,7.44,0,0,0,.24,2,4.07,4.07,0,0,0,.76,1.53,3.41,3.41,0,0,0,1.34,1,5,5,0,0,0,2,.35,7.45,7.45,0,0,0,1.7-.18,6.71,6.71,0,0,0,1.19-.38l.33,2a2.82,2.82,0,0,1-.58.24,7.54,7.54,0,0,1-.87.2l-1,.16A9.83,9.83,0,0,1,43.41,67.89Z"/><path class="cls-2" d="M54.1,54.1a6,6,0,0,1,.7,0,6.65,6.65,0,0,1,.78.1l.7.12a4.35,4.35,0,0,1,.47.12l-.41,2.06a7.38,7.38,0,0,0-2.59-.39,6.41,6.41,0,0,0-1.31.14l-.85.19v11.1H49.23V54.94a15.23,15.23,0,0,1,2.08-.58A13.94,13.94,0,0,1,54.1,54.1Z"/><path class="cls-2" d="M70.44,61A8.52,8.52,0,0,1,70,63.83,6.48,6.48,0,0,1,68.7,66a5.66,5.66,0,0,1-2,1.41,6.57,6.57,0,0,1-5,0,5.66,5.66,0,0,1-2-1.41,6.48,6.48,0,0,1-1.28-2.18,9,9,0,0,1,0-5.68A6.38,6.38,0,0,1,59.78,56a5.66,5.66,0,0,1,2-1.41,6.57,6.57,0,0,1,5,0,5.66,5.66,0,0,1,2,1.41A6.38,6.38,0,0,1,70,58.15,8.48,8.48,0,0,1,70.44,61ZM68,61a5.66,5.66,0,0,0-1-3.54,3.5,3.5,0,0,0-5.46,0,5.66,5.66,0,0,0-1,3.54,5.66,5.66,0,0,0,1,3.54,3.5,3.5,0,0,0,5.46,0A5.66,5.66,0,0,0,68,61Z"/><path class="cls-2" d="M86.69,50c-.52.58-1.11,1.22-1.78,1.92s-1.35,1.42-2.07,2.16L80.7,56.23q-1.07,1.07-2,2A23.08,23.08,0,0,1,81,60.09c.82.75,1.61,1.54,2.39,2.39s1.51,1.71,2.2,2.59a23.41,23.41,0,0,1,1.71,2.51H84.41a27.06,27.06,0,0,0-1.76-2.4c-.66-.8-1.36-1.57-2.09-2.31s-1.48-1.42-2.24-2a18.88,18.88,0,0,0-2.19-1.6v8.35H73.66V50h2.47v7.77c.59-.55,1.24-1.19,2-1.89s1.42-1.41,2.11-2.12l2-2c.62-.65,1.14-1.23,1.56-1.72Z"/><path class="cls-2" d="M100.13,63a5.08,5.08,0,0,1-.37,2,4.4,4.4,0,0,1-1.09,1.58,5.11,5.11,0,0,1-1.82,1,7.94,7.94,0,0,1-2.51.37,7.16,7.16,0,0,1-2.76-.47,5.14,5.14,0,0,1-1.76-1.19,4.08,4.08,0,0,1-.94-1.56,5,5,0,0,1-.28-1.61,4.18,4.18,0,0,1,.24-1.41,5.71,5.71,0,0,1,.63-1.26,5.78,5.78,0,0,1,.92-1,7.93,7.93,0,0,1,1.1-.83A4.54,4.54,0,0,1,89,54.4a4.46,4.46,0,0,1,.38-1.84A4.58,4.58,0,0,1,90.47,51,5.1,5.1,0,0,1,92.15,50a6,6,0,0,1,2.21-.39A6.16,6.16,0,0,1,96.8,50a5.06,5.06,0,0,1,1.67,1.1,4.31,4.31,0,0,1,.94,1.49,4.76,4.76,0,0,1,.29,1.57,4.22,4.22,0,0,1-.22,1.39,5.21,5.21,0,0,1-1.42,2.19,7,7,0,0,1-1,.77A4.78,4.78,0,0,1,100.13,63ZM91,63.16a3,3,0,0,0,.16,1,2.4,2.4,0,0,0,.57.91,3.33,3.33,0,0,0,1,.7,4,4,0,0,0,1.6.28,4.18,4.18,0,0,0,1.52-.25,3.18,3.18,0,0,0,1.05-.65,2.61,2.61,0,0,0,.61-.9,2.92,2.92,0,0,0,.2-1,3.19,3.19,0,0,0-.3-1.42,3.29,3.29,0,0,0-.88-1.06,5.16,5.16,0,0,0-1.37-.78,13.19,13.19,0,0,0-1.82-.55,4.94,4.94,0,0,0-1.76,1.58A3.91,3.91,0,0,0,91,63.16Zm6.35-9a2.67,2.67,0,0,0-.69-1.69,3,3,0,0,0-.91-.66,3.17,3.17,0,0,0-1.38-.27,3.36,3.36,0,0,0-1.38.26,2.79,2.79,0,0,0-.93.64,2.52,2.52,0,0,0-.52.87,2.74,2.74,0,0,0-.16.92,3.12,3.12,0,0,0,.2,1.12,3.22,3.22,0,0,0,.63,1,4.5,4.5,0,0,0,1.13.87,7.21,7.21,0,0,0,1.67.61,5.79,5.79,0,0,0,1.7-1.49A3.65,3.65,0,0,0,97.34,54.15Z"/><path class="cls-2" d="M106.38,65.88a4.62,4.62,0,0,0,2.15-.38,1.29,1.29,0,0,0,.69-1.22,1.64,1.64,0,0,0-.68-1.37,10.73,10.73,0,0,0-2.26-1.14c-.51-.21-1-.41-1.46-.62a5.67,5.67,0,0,1-1.21-.75,3.18,3.18,0,0,1-1.12-2.54,3.34,3.34,0,0,1,1.3-2.78,5.49,5.49,0,0,1,3.53-1,10.65,10.65,0,0,1,1.12.06c.37,0,.72.09,1,.15s.6.12.85.19l.57.18-.43,2a6.83,6.83,0,0,0-1.2-.42,7.86,7.86,0,0,0-2-.21,3.65,3.65,0,0,0-1.73.39,1.29,1.29,0,0,0-.73,1.23,1.64,1.64,0,0,0,.16.76,1.69,1.69,0,0,0,.51.6,4.44,4.44,0,0,0,.85.5c.34.15.74.31,1.22.48s1.18.47,1.67.7a5,5,0,0,1,1.26.8,2.92,2.92,0,0,1,.8,1.1,4,4,0,0,1,.28,1.59A3.15,3.15,0,0,1,110.25,67a6.71,6.71,0,0,1-3.87.94,10.29,10.29,0,0,1-2.74-.29q-1-.3-1.35-.45l.43-2,1.3.46A7.57,7.57,0,0,0,106.38,65.88Z"/></svg>